<?xml version="1.0" encoding="utf-8"?>
<!-- Generator: Adobe Illustrator 23.0.2, SVG Export Plug-In . SVG Version: 6.00 Build 0)  -->
<svg version="1.1" id="Layer_1" xmlns="http://www.w3.org/2000/svg" xmlns:xlink="http://www.w3.org/1999/xlink" x="0px" y="0px"
	 viewBox="0 0 512 512" style="enable-background:new 0 0 512 512;" xml:space="preserve">
<style type="text/css">
	.st0{fill:#000947;}
	.st1{fill:#D5DEE4;}
	.st2{fill:#8F9799;}
	.st3{fill:#ADB8BC;}
	.st4{fill:#76DFFF;}
	.st5{fill:#1C4C5A;}
	.st6{fill:#819096;}
	.st7{fill:#F9F9F7;}
</style>
<path class="st0" d="M422.17,512H89.82C40.22,512,0,471.78,0,422.17V89.82C0,40.22,40.22,0,89.82,0h332.35
	C471.78,0,512,40.22,512,89.82v332.35C512,471.78,471.78,512,422.17,512z"/>
<g>
	<path class="st1" d="M356.27,259.76H215.93c-12.89,0-23.44-10.55-23.44-23.44V110.75c0-12.89,10.55-23.44,23.44-23.44h140.34
		c12.89,0,23.44,10.55,23.44,23.44v125.56C379.71,249.21,369.16,259.76,356.27,259.76z"/>
</g>
<g id="Layer_3">
	<path class="st2" d="M122.48,409.95h-0.44c-20.63,0-37.51-16.88-37.51-37.51v-157.3c0-20.63,16.88-37.51,37.51-37.51h0.44
		c20.63,0,37.51,16.88,37.51,37.51v157.3C159.99,393.07,143.11,409.95,122.48,409.95z"/>
</g>
<g id="Layer_4">
	<path class="st3" d="M374.7,409.95H197.5c-20.63,0-37.51-16.88-37.51-37.51v-157.3c0-20.63,16.88-37.51,37.51-37.51h177.2
		c20.63,0,37.51,16.88,37.51,37.51v157.3C412.21,393.07,395.33,409.95,374.7,409.95z"/>
</g>
<g id="Layer_5">
	<path class="st4" d="M259.13,264.04H213.2c-15.47,0-28.13-12.66-28.13-28.13v-12.14c0-15.47,12.66-28.13,28.13-28.13h45.93
		c15.47,0,28.13,12.66,28.13,28.13v12.14C287.26,251.38,274.6,264.04,259.13,264.04z"/>
</g>
<g id="Layer_6">
	<circle class="st5" cx="333.13" cy="205.36" r="7.72"/>
</g>
<g id="Layer_7">
	<path class="st6" d="M359.66,117.35h-140.8c-2.22,0-4.02-1.8-4.02-4.02l0,0c0-2.22,1.8-4.02,4.02-4.02h140.8
		c2.22,0,4.02,1.8,4.02,4.02l0,0C363.69,115.55,361.88,117.35,359.66,117.35z M291.28,136.9L291.28,136.9c0-2.22-1.8-4.02-4.02-4.02
		h-68.4c-2.22,0-4.02,1.8-4.02,4.02l0,0c0,2.22,1.8,4.02,4.02,4.02h68.4C289.48,140.92,291.28,139.12,291.28,136.9z M323.56,160.47
		L323.56,160.47c0-2.22-1.8-4.02-4.02-4.02H218.86c-2.22,0-4.02,1.8-4.02,4.02l0,0c0,2.22,1.8,4.02,4.02,4.02h100.68
		C321.76,164.49,323.56,162.69,323.56,160.47z"/>
</g>
<g id="Layer_8">
	<path class="st6" d="M380.87,307.6h-62.46c-3.92,0-7.1-3.18-7.1-7.1v-1.91c0-3.92,3.18-7.1,7.1-7.1h62.46c3.92,0,7.1,3.18,7.1,7.1
		v1.91C387.96,304.42,384.78,307.6,380.87,307.6z M387.96,334.62v-1.91c0-3.92-3.18-7.1-7.1-7.1h-62.46c-3.92,0-7.1,3.18-7.1,7.1
		v1.91c0,3.92,3.18,7.1,7.1,7.1h62.46C384.78,341.72,387.96,338.54,387.96,334.62z M387.96,368.74v-1.91c0-3.92-3.18-7.1-7.1-7.1
		h-62.46c-3.92,0-7.1,3.18-7.1,7.1v1.91c0,3.92,3.18,7.1,7.1,7.1h62.46C384.78,375.84,387.96,372.66,387.96,368.74z M378.82,206.32
		v-1.91c0-3.92-3.18-7.1-7.1-7.1h-12.51c-3.92,0-7.1,3.18-7.1,7.1v1.91c0,3.92,3.18,7.1,7.1,7.1h12.51
		C375.64,213.41,378.82,210.23,378.82,206.32z"/>
</g>
<g id="Layer_9">
	<path class="st7" d="M214.54,299.55c0,5.99-4.85,10.84-10.84,10.84s-10.84-4.85-10.84-10.84s4.85-10.84,10.84-10.84
		S214.54,293.56,214.54,299.55z M236.17,288.71c-5.99,0-10.84,4.85-10.84,10.84s4.85,10.84,10.84,10.84S247,305.53,247,299.55
		S242.15,288.71,236.17,288.71z M268.63,288.71c-5.99,0-10.84,4.85-10.84,10.84s4.85,10.84,10.84,10.84
		c5.99,0,10.84-4.85,10.84-10.84C279.47,293.56,274.62,288.71,268.63,288.71z M203.7,322.83c-5.99,0-10.84,4.85-10.84,10.84
		s4.85,10.84,10.84,10.84s10.84-4.85,10.84-10.84C214.54,327.68,209.68,322.83,203.7,322.83z M236.17,322.83
		c-5.99,0-10.84,4.85-10.84,10.84s4.85,10.84,10.84,10.84S247,339.65,247,333.67C247,327.68,242.15,322.83,236.17,322.83z
		 M268.63,322.83c-5.99,0-10.84,4.85-10.84,10.84s4.85,10.84,10.84,10.84c5.99,0,10.84-4.85,10.84-10.84
		C279.47,327.68,274.62,322.83,268.63,322.83z M203.7,356.95c-5.99,0-10.84,4.85-10.84,10.84c0,5.99,4.85,10.84,10.84,10.84
		s10.84-4.85,10.84-10.84C214.54,361.8,209.68,356.95,203.7,356.95z M236.17,356.95c-5.99,0-10.84,4.85-10.84,10.84
		c0,5.99,4.85,10.84,10.84,10.84S247,373.77,247,367.79C247,361.8,242.15,356.95,236.17,356.95z M268.63,356.95
		c-5.99,0-10.84,4.85-10.84,10.84c0,5.99,4.85,10.84,10.84,10.84c5.99,0,10.84-4.85,10.84-10.84
		C279.47,361.8,274.62,356.95,268.63,356.95z M378.82,255.25v-17.28c0-4.86-3.94-8.79-8.79-8.79h-36.25c-4.86,0-8.79,3.94-8.79,8.79
		v17.28c0,4.86,3.94,8.79,8.79,8.79h36.25C374.88,264.04,378.82,260.11,378.82,255.25z"/>
</g>
</svg>